<?xml version="1.0" encoding="UTF-8" standalone="no"?>
<!-- Created with Inkscape (http://www.inkscape.org/) -->

<svg
   xmlns:dc="http://purl.org/dc/elements/1.1/"
   xmlns:cc="http://creativecommons.org/ns#"
   xmlns:rdf="http://www.w3.org/1999/02/22-rdf-syntax-ns#"
   xmlns:svg="http://www.w3.org/2000/svg"
   xmlns="http://www.w3.org/2000/svg"
   xmlns:sodipodi="http://sodipodi.sourceforge.net/DTD/sodipodi-0.dtd"
   xmlns:inkscape="http://www.inkscape.org/namespaces/inkscape"
   width="75"
   height="75"
   viewBox="0 0 19.843751 19.84375"
   version="1.1"
   id="svg2966"
   inkscape:version="0.92.4 (5da689c313, 2019-01-14)"
   sodipodi:docname="finance-logo-svg.svg">
  <defs
     id="defs2960" />
  <sodipodi:namedview
     id="base"
     pagecolor="#ffffff"
     bordercolor="#666666"
     borderopacity="1.0"
     inkscape:pageopacity="0.0"
     inkscape:pageshadow="2"
     inkscape:zoom="7.9195959"
     inkscape:cx="27.319182"
     inkscape:cy="39.419954"
     inkscape:document-units="mm"
     inkscape:current-layer="layer1"
     showgrid="false"
     units="px"
     inkscape:window-width="1920"
     inkscape:window-height="1017"
     inkscape:window-x="-8"
     inkscape:window-y="-8"
     inkscape:window-maximized="1" />
  <metadata
     id="metadata2963">
    <rdf:RDF>
      <cc:Work
         rdf:about="">
        <dc:format>image/svg+xml</dc:format>
        <dc:type
           rdf:resource="http://purl.org/dc/dcmitype/StillImage" />
        <dc:title></dc:title>
      </cc:Work>
    </rdf:RDF>
  </metadata>
  <g
     inkscape:label="Layer 1"
     inkscape:groupmode="layer"
     id="layer1"
     transform="translate(0,-277.15626)">
    <g
       id="g3008"
       transform="translate(-0.1649309,-0.177605)">
      <path
         d="m 17.557725,287.80184 c -0.0737,-0.004 -0.15522,0.0356 -0.19861,0.10019 -0.0709,0.10654 -0.03,0.27199 0.11183,0.45367 0.042,0.054 0.0878,0.10125 0.13582,0.14182 0.0871,-0.12841 0.13723,-0.26318 0.13053,-0.40358 -0.005,-0.0935 -0.0289,-0.25435 -0.14358,-0.28646 z m -1.43651,2.23379 c -0.11465,-0.006 -0.21943,-0.0822 -0.25682,-0.19826 -0.0487,-0.15064 0.0342,-0.31186 0.1845,-0.36089 0.24906,-0.0808 0.75318,-0.29175 1.14618,-0.57856 -0.0628,-0.0568 -0.12206,-0.1203 -0.17604,-0.18944 -0.29986,-0.38418 -0.35066,-0.80434 -0.13617,-1.12501 0.18838,-0.28187 0.54328,-0.41769 0.86431,-0.32808 0.33231,0.0924 0.54292,0.39546 0.56232,0.81139 0.0116,0.23565 -0.0505,0.45014 -0.1591,0.64381 0.16475,0.01 0.32597,-0.0236 0.45896,-0.0843 0.37712,-0.1718 0.5521,-0.52951 0.46849,-0.95708 -0.0303,-0.15487 0.0713,-0.30551 0.22613,-0.3362 0.15628,-0.0303 0.30586,0.0713 0.3362,0.22648 0.13406,0.68475 -0.17745,1.30775 -0.79304,1.58821 -0.36407,0.16616 -0.76236,0.18027 -1.11796,0.0628 -0.56797,0.49565 -1.36736,0.76729 -1.50424,0.81139 -0.0346,0.0116 -0.0695,0.0155 -0.10372,0.0138"
         style="fill:#fcd751;fill-opacity:1;fill-rule:nonzero;stroke:none;stroke-width:0.03527778"
         id="path818"
         inkscape:connector-curvature="0" />
      <path
         d="m 6.2653146,296.1595 c -0.22366,0.8389 -0.65158,1.01035 -1.01001,1.01035 -0.78528,0 -1.28869,-0.10266 -1.42204,-1.01035 l -0.10725,-1.95827 c 0,-0.78529 0.74401,-0.94333 1.52929,-0.94333 0.78564,0 1.4217,0.63606 1.4217,1.42169 l -0.41169,1.47991"
         style="fill:#fcd751;fill-opacity:1;fill-rule:nonzero;stroke:none;stroke-width:0.03527778"
         id="path820"
         inkscape:connector-curvature="0" />
      <path
         d="m 12.390595,296.1595 c 0.22295,0.8389 0.65123,1.01035 1.01,1.01035 0.78493,0 1.2887,-0.10266 1.42205,-1.01035 l 0.10724,-1.95827 c 0,-0.78529 -0.74436,-0.94333 -1.52929,-0.94333 -0.78564,0 -1.42205,0.63606 -1.42205,1.42169 l 0.41205,1.47991"
         style="fill:#fcd751;fill-opacity:1;fill-rule:nonzero;stroke:none;stroke-width:0.03527778"
         id="path822"
         inkscape:connector-curvature="0" />
      <path
         d="m 3.2310746,291.43545 c 0,0.69921 -0.611019,1.26647 -1.364199,1.26647 -0.75318,0 -1.36418993,-0.56726 -1.36418993,-1.26647 v -1.55681 c 0,-0.6992 0.61100993,-1.26647 1.36418993,-1.26647 0.75318,0 1.364199,0.56727 1.364199,1.26647 v 1.55681"
         style="fill:#fcd751;fill-opacity:1;fill-rule:nonzero;stroke:none;stroke-width:0.03527778"
         id="path824"
         inkscape:connector-curvature="0" />
      <path
         d="m 9.3281246,284.37425 c -1.52752,0 -2.94745,0.36548 -4.13173,0.99166 l -1.59667,-1.0033 c -0.39017,-0.35207 -1.238249,-0.37924 -1.590679,0.0116 -0.35313,0.39017 -0.0765,1.04916 0.31398,1.40123 l 0.943319,1.0661 c -0.897109,0.98531 -1.428039,2.1971 -1.428039,3.50802 0,3.29953 3.353149,5.975 7.489819,5.975 4.1363204,0 7.4884204,-2.67547 7.4884204,-5.975 0,-3.30024 -3.3521,-5.97535 -7.4884204,-5.97535"
         style="fill:#fcd751;fill-opacity:1;fill-rule:nonzero;stroke:none;stroke-width:0.03527778"
         id="path826"
         inkscape:connector-curvature="0" />
      <path
         d="m 4.9134646,288.61217 c 0,0.2988 -0.24094,0.54046 -0.53975,0.54046 -0.29845,0 -0.54045,-0.24166 -0.54045,-0.54046 0,-0.29845 0.242,-0.54046 0.54045,-0.54046 0.29881,0 0.53975,0.24201 0.53975,0.54046"
         style="fill:#ffa229;fill-opacity:1;fill-rule:nonzero;stroke:none;stroke-width:0.03527778"
         id="path828"
         inkscape:connector-curvature="0" />
      <path
         d="m 12.833685,286.21469 c -0.0882,0.18027 -0.30586,0.25718 -0.49389,0.18133 -1.89442,-0.77929 -4.1296204,-0.77929 -6.0240404,0 -0.18803,0.0759 -0.40604,-0.001 -0.49388,-0.18133 -0.0875,-0.17921 0.003,-0.40252 0.21237,-0.48718 2.06939,-0.85373 4.5176704,-0.85373 6.5874204,0 0.20884,0.0847 0.29951,0.30797 0.21202,0.48718"
         style="fill:#ffa229;fill-opacity:1;fill-rule:nonzero;stroke:none;stroke-width:0.03527778"
         id="path830"
         inkscape:connector-curvature="0" />
      <path
         d="m 6.4685146,277.34163 v 8.99583 c 0.17462,-0.067 0.35101,-0.12912 0.52987,-0.18345 0.15169,-0.0459 0.30515,-0.0875 0.45932,-0.12347 1.25412,-0.29845 2.5890304,-0.28998 3.8385704,0.0233 0.15381,0.0395 0.30727,0.0836 0.45896,0.13194 0.17922,0.0568 0.35596,0.11924 0.52988,0.18909 v -0.77611 -8.25711 H 6.4685146"
         style="fill:#aebfce;fill-opacity:1;fill-rule:nonzero;stroke:none;stroke-width:0.03527778"
         id="path832"
         inkscape:connector-curvature="0" />
      <path
         d="m 11.755235,286.18576 v 0 c -0.15169,-0.0483 -0.30515,-0.0924 -0.45896,-0.13193 v -0.74401 -6.31296 l -0.0794,0.008 c -0.29633,0 -0.53763,-0.24095 -0.53763,-0.53799 l 0.008,-0.079 H 8.0664746 l 0.008,0.079 c 0,0.29704 -0.24059,0.53799 -0.53798,0.53799 l -0.0787,-0.008 v 6.29144 0.74224 0 c -0.15417,0.036 -0.30763,0.0776 -0.45932,0.12347 v -0.75318 -7.47183 h 4.7568504 v 7.49794 0.75882"
         style="fill:#516179;fill-opacity:1;fill-rule:nonzero;stroke:none;stroke-width:0.03527778"
         id="path834"
         inkscape:connector-curvature="0" />
      <path
         d="M 10.212545,282.57685 H 9.6191746 c 0.0381,-0.0804 0.0801,-0.14993 0.12523,-0.20708 0.0455,-0.0575 0.10372,-0.0861 0.17498,-0.0861 0.0822,0 0.1488704,0.0243 0.1996704,0.073 0.0519,0.0476 0.0825,0.12171 0.0935,0.22014"
         style="fill:#516179;fill-opacity:1;fill-rule:nonzero;stroke:none;stroke-width:0.03527778"
         id="path836"
         inkscape:connector-curvature="0" />
      <path
         d="m 8.7852046,282.9141 c -0.0702,0 -0.12912,-0.0198 -0.17674,-0.0589 -0.0473,-0.0399 -0.0734,-0.11148 -0.0776,-0.21766 h 0.54962 c -0.0388,0.079 -0.0808,0.14499 -0.12594,0.1979 -0.0452,0.0522 -0.1016,0.0787 -0.16933,0.0787"
         style="fill:#516179;fill-opacity:1;fill-rule:nonzero;stroke:none;stroke-width:0.03527778"
         id="path838"
         inkscape:connector-curvature="0" />
      <path
         d="m 9.3764546,284.32451 c -0.95285,0 -1.72543,-0.77258 -1.72543,-1.72544 0,-0.9532 0.77258,-1.72543 1.72543,-1.72543 0.9539204,0 1.7257904,0.77223 1.7257904,1.72543 0,0.95286 -0.77187,1.72544 -1.7257904,1.72544 m -1.51659,-1.8923 v 0.35066 h 0.30692 c 0.0314,0.17498 0.10019,0.31397 0.20743,0.41628 0.10619,0.10195 0.25612,0.15346 0.44979,0.15346 0.10337,0 0.19262,-0.0166 0.26812,-0.049 0.0751,-0.0328 0.13934,-0.0762 0.19367,-0.12982 0.054,-0.054 0.0998,-0.11501 0.13794,-0.18345 0.0388,-0.0691 0.0734,-0.13829 0.10442,-0.20743 h 0.6843904 c -0.009,0.10089 -0.0247,0.18803 -0.0473,0.26141 -0.0222,0.0734 -0.0459,0.12947 -0.0706,0.17004 l 0.38559,0.13158 c 0.03,-0.054 0.0564,-0.12947 0.079,-0.22613 0.0229,-0.0967 0.0367,-0.20919 0.0413,-0.3369 h 0.29316 v -0.35066 h -0.31363 c -0.0335,-0.18203 -0.1083,-0.32491 -0.22436,-0.42968 -0.11572,-0.10443 -0.27658,-0.15664 -0.4836604,-0.15664 -0.1009,0 -0.18803,0.0169 -0.26106,0.0522 -0.0727,0.0349 -0.13652,0.0797 -0.19015,0.13476 -0.0543,0.055 -0.10089,0.11748 -0.14005,0.18909 -0.0392,0.0706 -0.0751,0.14076 -0.10654,0.21026 h -0.63359 c 0.009,-0.0737 0.0226,-0.14041 0.0406,-0.19932 0.0176,-0.0575 0.0356,-0.10583 0.0536,-0.14429 l -0.37183,-0.12171 c -0.0265,0.0632 -0.0497,0.13159 -0.0699,0.20567 -0.0201,0.0744 -0.0339,0.16052 -0.0402,0.25965 h -0.29316"
         style="fill:#516179;fill-opacity:1;fill-rule:nonzero;stroke:none;stroke-width:0.03527778"
         id="path840"
         inkscape:connector-curvature="0" />
    </g>
  </g>
</svg>
